<?xml version="1.0" standalone="no"?>
<!DOCTYPE svg PUBLIC "-//W3C//DTD SVG 20010904//EN"
 "http://www.w3.org/TR/2001/REC-SVG-20010904/DTD/svg10.dtd">
<svg version="1.0" xmlns="http://www.w3.org/2000/svg"
 width="917.000000pt" height="917.000000pt" viewBox="0 0 917.000000 917.000000"
 preserveAspectRatio="xMidYMid meet">
<metadata>
Created by potrace 1.11, written by Peter Selinger 2001-2013
</metadata>
<g transform="translate(0.000000,917.000000) scale(0.100000,-0.100000)"
fill="#000000" stroke="none">
<path d="M0 7401 l0 -1768 30 1 c26 1 30 4 26 22 -3 12 -2 24 2 28 4 4 7 13 7
19 1 28 17 77 25 77 5 0 7 57 4 128 -2 70 -7 237 -10 372 -4 149 -10 247 -16
251 -15 10 -30 184 -20 223 11 39 4 294 -9 317 -5 10 -5 60 1 121 8 83 7 508
-2 593 -1 11 -1 33 0 48 2 36 27 31 27 -6 -1 -14 3 -23 7 -21 4 3 8 29 8 58 0
40 -5 57 -20 71 -30 27 -24 109 6 84 11 -9 14 -5 14 23 0 19 -7 49 -16 66 -20
41 -6 72 31 65 16 -4 27 0 31 10 3 8 1 77 -4 154 -5 76 -7 143 -5 149 3 8 24
10 64 7 l59 -6 0 46 c0 25 5 49 10 52 6 3 10 10 10 16 0 5 -4 9 -10 9 -5 0
-10 -7 -10 -15 0 -8 -9 -15 -19 -15 -10 0 -21 7 -25 15 -3 8 -1 15 4 15 6 0
10 6 10 13 0 6 5 19 10 27 9 13 11 13 19 0 6 -8 14 -11 18 -6 4 5 2 11 -4 13
-8 3 -13 22 -13 48 0 42 1 44 34 51 37 6 39 21 8 56 -11 13 -19 15 -34 7 -27
-15 -48 -4 -48 25 0 47 9 57 46 50 33 -6 34 -6 34 29 0 20 4 47 9 61 7 17 7
26 -1 28 -7 3 -9 12 -5 21 5 14 20 17 82 17 l76 0 -3 38 c-2 30 -7 37 -25 38
-34 2 -53 12 -53 29 0 13 -25 15 -180 15 l-180 0 0 -1769z m55 791 c-11 -11
-27 17 -20 35 6 16 8 16 16 -6 5 -13 7 -26 4 -29z"/>
<path d="M1925 9128 c3 -24 16 -277 30 -563 23 -485 28 -582 40 -725 3 -30 7
-127 9 -215 2 -88 7 -180 10 -205 3 -25 8 -115 11 -200 2 -86 6 -162 9 -170
11 -30 19 -170 20 -335 1 -107 6 -180 14 -198 6 -15 13 -49 13 -75 2 -49 22
-102 40 -102 15 0 32 -49 36 -105 5 -68 -3 -95 -28 -95 -18 0 -20 -6 -18 -62
1 -35 -2 -74 -7 -88 -5 -14 -8 -36 -7 -50 2 -14 6 -53 9 -88 4 -40 12 -66 20
-69 11 -4 7 -13 -15 -35 -24 -24 -28 -36 -25 -71 7 -89 17 -273 15 -292 -6
-90 0 -188 15 -226 9 -24 20 -71 24 -104 10 -79 32 -127 79 -174 38 -38 70
-53 186 -88 l60 -18 6 -117 c4 -64 10 -122 14 -128 4 -7 11 -65 14 -129 6
-100 10 -122 29 -146 38 -48 25 -132 -24 -154 -13 -6 -23 -14 -22 -18 2 -8
-31 -63 -43 -73 -4 -3 -7 -24 -7 -47 -1 -34 5 -48 31 -72 19 -20 37 -29 48
-26 10 3 21 1 24 -6 6 -8 10 -7 17 2 6 9 8 -13 5 -63 -4 -62 -11 -88 -36 -130
-49 -85 -91 -176 -91 -197 0 -11 -5 -32 -12 -48 -6 -15 -11 -31 -10 -35 1 -5
-2 -8 -7 -8 -5 0 -11 -10 -15 -23 -3 -12 -17 -34 -31 -50 -14 -15 -23 -31 -20
-37 7 -11 -19 -75 -35 -85 -7 -4 -23 -2 -36 6 -29 15 -46 3 -21 -15 9 -7 17
-20 17 -28 0 -8 5 -19 12 -26 6 -6 8 -15 4 -19 -4 -4 -11 -1 -16 7 -6 8 -10
11 -11 5 -1 -5 -2 -14 -4 -20 -1 -5 -3 -16 -3 -22 -1 -7 -9 -13 -18 -13 -8 0
-12 -5 -9 -10 4 -6 10 -8 15 -5 4 3 13 -8 18 -24 6 -15 20 -37 31 -48 20 -19
20 -21 5 -51 -10 -21 -23 -32 -37 -33 -16 -1 -13 -3 10 -10 29 -9 32 -12 21
-29 -10 -16 -10 -23 5 -37 12 -13 20 -14 28 -6 7 7 21 8 42 2 42 -12 73 -3 56
17 -22 27 5 34 28 8 17 -19 18 -24 6 -24 -12 0 -14 -7 -9 -31 5 -29 4 -31 -18
-25 -31 8 -40 -3 -21 -25 12 -13 24 -15 50 -9 19 4 36 6 39 3 2 -2 17 2 34 11
31 16 68 12 90 -11 7 -7 20 -13 28 -13 8 0 14 -7 14 -15 0 -8 5 -15 10 -15 6
0 8 11 4 25 -8 34 4 31 50 -10 41 -36 56 -43 56 -25 0 6 5 10 11 10 5 0 3 -10
-5 -22 -27 -38 -18 -42 14 -7 16 19 30 28 30 21 0 -9 7 -11 21 -7 18 6 20 4
14 -17 -5 -21 -5 -22 8 -5 8 9 21 17 30 17 9 0 19 5 22 10 10 16 75 12 75 -4
0 -22 -19 -30 -26 -12 -6 17 -24 22 -24 8 0 -13 36 -52 46 -52 5 0 18 16 28
35 22 40 29 42 54 17 17 -17 51 -35 84 -46 29 -9 26 19 -4 31 -25 11 -28 15
-18 33 11 21 25 26 34 11 7 -11 56 -2 56 10 0 5 -12 7 -27 4 l-28 -5 30 14
c41 19 55 5 56 -58 l0 -51 15 48 15 48 32 -18 c35 -21 47 -51 26 -67 -8 -6
-20 -24 -28 -41 -14 -31 -20 -43 -56 -112 -34 -62 -47 -182 -25 -222 8 -17 19
-20 55 -18 25 1 45 -1 45 -5 0 -4 6 -8 14 -8 8 0 17 -14 21 -30 4 -17 13 -30
20 -30 8 0 25 -10 38 -22 30 -29 49 -77 28 -71 -4 1 -7 -7 -8 -17 -2 -28 26
-34 37 -7 8 21 9 21 11 -5 1 -16 3 -36 3 -45 1 -10 10 -26 21 -35 11 -10 17
-17 13 -18 -4 0 0 -19 9 -42 18 -47 61 -100 75 -92 4 3 17 -11 29 -30 12 -20
24 -34 29 -31 4 2 15 -4 25 -15 10 -11 22 -20 27 -20 11 0 57 -41 144 -128 40
-40 64 -58 67 -50 3 7 6 2 6 -12 1 -20 3 -22 11 -10 9 13 10 13 10 0 0 -9 14
-24 30 -33 17 -10 30 -22 30 -28 0 -5 7 -9 15 -9 8 0 15 -5 15 -11 0 -5 -5 -7
-12 -3 -7 4 -8 3 -4 -4 4 -7 18 -9 33 -6 22 6 25 4 20 -11 -5 -12 -3 -16 7
-12 10 4 14 0 11 -13 -2 -11 4 -20 16 -23 10 -3 17 -1 13 4 -3 5 2 6 10 3 9
-3 16 -12 16 -20 0 -8 4 -14 10 -14 14 0 100 -82 94 -91 -2 -4 0 -10 6 -14 5
-3 10 -1 10 5 0 6 4 9 10 5 5 -3 7 -13 4 -23 -5 -14 -4 -15 5 -2 8 12 16 8 47
-25 20 -22 36 -41 35 -42 -5 -13 1 -33 9 -28 19 12 280 -262 280 -294 0 -6 3
-11 8 -11 8 0 67 -128 67 -146 0 -6 5 -18 11 -25 23 -29 23 -58 0 -65 -11 -4
-24 -12 -28 -18 -9 -13 -27 34 -20 52 3 10 7 11 12 2 5 -8 9 -7 13 3 13 33
-25 37 -40 4 -10 -21 -18 -23 -89 -24 -91 -2 -114 2 -114 23 0 8 -4 13 -9 10
-5 -3 -12 1 -15 10 -5 13 -15 15 -46 11 -22 -3 -40 -1 -40 4 0 5 -9 9 -20 9
-13 0 -18 -5 -14 -15 4 -10 0 -15 -10 -15 -17 0 -37 -39 -39 -77 -2 -29 -8
-29 -36 1 -13 14 -28 23 -35 20 -6 -2 -20 10 -31 28 -10 18 -29 41 -41 51 -13
10 -25 25 -28 35 -4 9 -22 27 -41 40 -19 12 -35 27 -35 33 0 6 -11 25 -25 43
-14 18 -25 38 -25 44 0 7 -6 12 -14 12 -17 0 -26 22 -26 64 0 23 -10 42 -40
71 -27 28 -37 46 -33 59 4 15 2 18 -11 13 -12 -5 -19 1 -26 18 -5 14 -17 28
-25 32 -9 3 -14 12 -11 20 4 9 -1 17 -14 20 -11 3 -20 10 -20 15 0 5 -9 28
-20 50 -27 57 -15 67 52 44 29 -10 64 -26 78 -35 14 -8 27 -16 30 -16 3 0 48
-22 101 -48 52 -26 102 -47 111 -47 8 0 29 -5 46 -11 27 -9 30 -14 22 -29 -6
-10 -10 -29 -10 -42 1 -23 1 -23 16 -3 15 19 15 18 12 -15 -2 -27 1 -35 15
-38 12 -2 20 4 24 17 7 29 31 26 43 -5 13 -34 13 -37 -4 -31 -28 11 -24 -19 5
-39 37 -24 36 -31 -1 -39 -44 -10 -85 3 -100 30 -16 30 -26 31 -40 6 -7 -14
-7 -22 1 -26 6 -4 8 -13 5 -20 -6 -15 34 -30 100 -38 28 -3 55 1 82 13 22 10
42 17 44 15 2 -2 17 19 33 46 17 28 37 49 48 49 9 0 17 6 17 13 0 19 -76 86
-120 106 -19 9 -37 19 -40 22 -14 15 -163 79 -185 79 -14 0 -25 3 -25 8 0 4
-18 13 -40 20 -22 6 -85 39 -140 72 -55 33 -104 60 -108 60 -4 0 -19 11 -34
25 -15 14 -30 25 -33 25 -11 0 -207 136 -273 189 -34 28 -67 51 -72 51 -6 0
-10 4 -10 8 0 4 -57 37 -126 72 -94 48 -129 71 -136 90 -20 48 -19 105 1 175
11 38 16 74 13 80 -7 11 -34 14 -42 5 -3 -3 -32 -23 -65 -45 -33 -21 -73 -49
-89 -63 -46 -37 -119 -70 -266 -118 -267 -89 -338 -174 -310 -377 15 -106 48
-200 87 -243 58 -66 33 -85 -51 -38 -36 20 -54 25 -79 20 -18 -4 -49 -10 -69
-13 -32 -4 -38 -9 -38 -30 0 -13 -4 -21 -10 -18 -5 3 -16 -10 -24 -30 -8 -19
-20 -35 -26 -35 -6 0 -20 -19 -30 -43 -11 -24 -28 -54 -40 -67 -11 -12 -20
-33 -20 -46 0 -12 -18 -44 -40 -71 -57 -68 -56 -67 -74 -101 -9 -17 -25 -33
-36 -37 -11 -3 -20 -10 -20 -15 0 -5 -11 -20 -25 -34 -14 -14 -25 -32 -25 -40
0 -9 -9 -20 -20 -26 -11 -6 -19 -16 -17 -22 1 -6 -4 -13 -10 -15 -8 -3 -13 5
-14 21 -1 14 -2 29 -3 34 -1 4 -6 22 -10 39 -4 18 -14 33 -22 33 -8 0 -14 5
-14 10 0 6 18 10 39 10 l39 0 -1 50 c-2 47 -19 68 -30 38 -3 -7 -2 6 0 30 5
37 3 42 -15 42 -23 0 -32 -18 -32 -66 0 -24 -5 -34 -15 -34 -8 0 -15 7 -15 15
0 9 -6 12 -15 9 -19 -8 -19 -24 0 -24 8 0 15 -9 15 -20 0 -25 -16 -26 -30 -1
-6 13 -17 17 -30 14 -13 -3 -20 0 -21 8 -1 8 -2 19 -4 24 -1 6 -3 16 -3 23 -1
7 -6 11 -11 8 -12 -8 -31 48 -31 92 0 20 -10 56 -22 80 -12 25 -22 66 -22 91
-1 25 -5 51 -9 58 -18 28 -140 -15 -162 -57 -8 -16 -26 -37 -40 -48 -14 -11
-25 -23 -25 -27 0 -3 -6 -13 -12 -20 -30 -33 -38 -45 -38 -55 0 -5 -11 -20
-24 -31 -14 -12 -30 -43 -37 -70 -13 -50 -43 -77 -73 -66 -13 5 -16 -1 -18
-31 l-1 -37 -7 45 -7 45 -1 -47 c-1 -26 3 -50 8 -53 6 -4 10 -21 10 -38 -5
-253 7 -353 19 -164 2 15 39 6 45 -10 6 -14 9 -15 15 -4 10 16 14 11 36 -59
23 -72 33 -84 52 -65 21 21 30 19 50 -12 38 -59 63 -72 130 -67 51 3 64 1 73
-14 9 -16 11 -16 25 2 8 11 15 26 15 33 0 7 5 13 10 13 6 0 10 -4 10 -10 0
-15 29 -12 46 4 8 8 14 23 14 34 0 13 10 24 31 31 17 6 28 15 24 20 -3 6 1 23
9 39 8 16 13 38 10 48 -3 10 2 28 10 39 14 18 15 14 16 -52 0 -58 -3 -73 -15
-73 -27 0 -19 -55 10 -70 14 -7 25 -19 25 -26 0 -8 14 -13 38 -13 20 0 45 -1
54 -2 22 -3 36 -44 30 -91 -2 -22 3 -55 12 -78 14 -36 14 -40 0 -40 -17 0 -16
-34 1 -36 6 0 18 -4 29 -9 11 -5 26 -4 37 4 12 7 19 7 19 1 0 -14 3478 -14
3514 0 14 5 26 15 26 22 0 7 16 26 35 41 19 15 35 33 35 40 0 7 15 21 33 31
17 11 46 34 62 53 17 18 35 33 41 33 5 0 18 13 27 29 10 17 27 33 38 36 19 6
47 34 135 135 21 24 53 58 70 75 17 16 38 44 47 60 18 36 130 155 145 155 12
0 99 76 133 116 27 31 68 62 86 66 10 2 22 18 27 38 6 19 15 40 21 47 24 29
30 39 30 52 0 8 12 18 28 22 24 6 49 23 107 72 55 46 111 87 137 100 17 9 33
22 36 30 6 16 62 33 170 53 53 9 83 10 85 4 10 -28 92 6 110 45 6 14 15 25 20
25 5 0 26 16 48 35 56 51 141 106 188 123 27 9 105 17 223 21 144 5 181 9 174
19 -4 7 -43 16 -88 22 -72 8 -143 33 -208 73 -74 45 -273 239 -281 274 -3 12
-12 24 -20 27 -8 3 -14 16 -14 30 0 14 -11 51 -24 83 -13 32 -34 92 -46 133
-31 104 -66 175 -112 223 -45 48 -58 42 -58 -31 0 -24 -7 -56 -16 -72 -14 -23
-25 -28 -72 -33 -41 -4 -73 -17 -126 -49 -80 -50 -80 -50 -36 -140 15 -31 31
-67 35 -80 6 -19 94 -143 130 -182 5 -6 11 -18 13 -26 2 -8 7 -17 11 -20 17
-11 41 -70 41 -101 0 -25 -10 -40 -52 -78 -29 -25 -128 -121 -220 -212 -92
-92 -181 -177 -198 -190 -69 -53 -294 -257 -444 -402 -55 -54 -154 -141 -218
-194 -65 -52 -118 -99 -118 -104 0 -5 -5 -9 -10 -9 -6 0 -26 -18 -46 -40 -20
-22 -41 -40 -46 -40 -6 0 -19 -11 -29 -24 -10 -13 -32 -26 -49 -29 -17 -4 -30
-13 -30 -21 0 -8 -20 -29 -45 -47 -25 -18 -44 -38 -41 -45 3 -8 -9 -15 -34
-19 -26 -4 -40 -13 -43 -26 -3 -10 -12 -19 -21 -19 -20 0 -20 4 -1 39 8 16 11
31 8 35 -13 12 -33 6 -34 -11 0 -15 -2 -15 -8 2 -6 15 -3 24 13 35 26 18 46
43 40 51 -2 4 5 5 16 2 11 -3 20 0 20 6 0 6 7 11 15 11 9 0 15 9 15 21 0 12 8
23 20 26 31 8 24 23 -12 24 -23 1 -26 3 -11 6 12 2 20 10 17 17 -3 7 9 24 26
39 16 15 30 32 30 38 0 6 6 9 14 6 9 -4 16 3 20 19 4 13 13 24 20 24 8 0 17 7
20 16 4 10 12 14 22 10 12 -4 15 -2 10 9 -3 9 0 15 9 15 8 0 15 6 15 13 0 8
11 20 25 27 14 7 25 17 25 22 0 5 19 35 43 66 24 31 55 77 69 102 59 103 73
128 99 180 16 30 29 61 29 68 0 6 3 12 8 12 4 0 23 33 42 73 19 39 37 74 40
77 3 3 16 25 29 50 14 25 40 66 58 92 18 26 33 51 33 55 0 5 11 21 25 37 14
16 25 33 25 38 0 4 14 27 30 50 17 22 30 47 30 55 0 7 5 13 10 13 6 0 10 4 10
9 0 5 18 36 40 69 22 33 40 65 40 71 0 6 4 11 8 11 5 0 14 10 21 23 48 89 155
242 198 282 12 11 40 42 62 68 23 27 41 45 41 41 0 -4 11 3 25 16 18 17 23 30
19 47 -5 17 -2 23 10 23 9 0 16 7 16 15 0 8 4 15 9 15 14 0 71 98 78 133 3 18
10 37 15 44 5 7 7 21 3 32 -3 12 -3 26 2 33 4 7 9 29 10 48 1 19 7 36 13 38 5
2 10 10 10 18 0 7 15 45 34 83 42 88 60 197 54 350 l-3 114 -54 47 c-41 36
-52 52 -49 71 2 19 8 24 29 22 29 -2 36 -7 147 -115 63 -61 99 -107 157 -199
6 -9 30 -45 54 -80 24 -35 54 -84 68 -109 47 -86 76 -135 84 -140 16 -11 79
-217 93 -301 18 -117 28 -140 74 -185 26 -24 56 -47 67 -51 11 -3 34 -17 51
-30 18 -13 66 -31 115 -42 130 -29 529 -161 611 -202 21 -11 46 -19 57 -19 11
0 21 -3 23 -8 2 -4 48 -25 103 -46 55 -21 123 -48 150 -59 28 -11 73 -28 100
-37 28 -10 75 -29 105 -43 59 -28 233 -97 244 -97 3 0 6 787 6 1749 0 1656 -1
1749 -17 1756 -17 7 -17 8 1 14 19 7 19 8 -3 30 -12 12 -26 19 -31 16 -6 -4
-13 2 -17 12 -4 10 -15 24 -25 31 -15 11 -16 17 -8 27 16 19 6 32 -29 40 -19
4 -28 12 -27 23 1 11 -8 18 -22 20 -17 3 -21 8 -17 23 4 11 2 19 -4 19 -6 0
-11 -4 -11 -10 0 -23 -32 -7 -45 23 -19 41 -35 62 -58 70 -10 4 -16 11 -13 16
8 12 -41 24 -59 14 -7 -4 -14 -12 -14 -18 -2 -18 -24 -11 -27 8 -1 11 -5 21
-8 24 -3 4 2 12 12 19 16 12 15 13 -5 14 -13 0 -23 -7 -25 -17 -3 -14 -8 -10
-21 15 -21 38 -57 45 -58 10 -1 -22 -1 -22 -10 2 -10 27 -87 70 -126 70 -13 0
-23 6 -23 14 0 10 -12 14 -42 12 -25 -1 -58 5 -80 16 -39 19 -50 38 -23 38 18
0 20 20 3 21 -38 3 -94 -4 -99 -12 -3 -5 -14 0 -24 11 -10 11 -13 20 -7 20 5
0 8 9 5 20 -4 14 -14 20 -32 20 -14 0 -51 10 -81 21 -63 24 -91 28 -140 17
-44 -9 -67 -2 -75 23 -6 17 -16 19 -119 19 -67 0 -116 4 -123 11 -8 8 -13 8
-17 0 -10 -16 -26 -13 -26 4 0 17 -16 20 -25 5 -4 -6 -13 -2 -23 10 -36 44
-71 -4 -45 -59 12 -23 22 -31 42 -31 l26 -1 -25 -20 c-14 -12 -26 -16 -28 -10
-5 14 -42 15 -42 1 0 -5 6 -10 13 -11 6 0 2 -4 -10 -9 -22 -9 -73 7 -73 23 0
4 -11 7 -24 7 -13 0 -26 6 -28 12 -3 9 -10 8 -22 -5 -14 -14 -28 -16 -73 -11
-38 5 -57 3 -62 -5 -5 -7 -14 -13 -22 -14 -8 -2 -20 -6 -26 -10 -7 -5 -13 -4
-13 2 0 18 -30 0 -46 -28 l-15 -26 5 38 c3 23 1 37 -6 37 -6 0 -8 3 -5 6 4 4
13 2 21 -5 11 -9 15 -6 19 16 5 27 -9 47 -25 37 -4 -3 -13 7 -18 21 -12 33
-13 112 -1 119 8 5 8 37 -2 221 -2 33 1 65 6 72 5 8 3 20 -6 33 -15 22 -12 70
5 70 7 0 6 5 -1 14 -6 7 -12 26 -14 42 -4 40 -29 118 -40 125 -5 4 -4 9 2 13
20 13 12 80 -20 161 -4 11 -10 38 -13 59 -3 22 -10 42 -16 46 -7 4 -11 10 -11
14 1 3 -5 22 -13 41 -9 20 -18 51 -22 70 -3 19 -11 35 -16 35 -6 0 -7 11 -4
25 8 30 -14 77 -53 114 -15 14 -34 46 -41 71 -8 25 -25 56 -37 69 -13 14 -35
48 -48 75 -14 28 -27 50 -30 49 -14 -7 -22 0 -39 32 -10 19 -27 37 -37 40 -11
4 -19 16 -19 28 0 23 -128 167 -148 167 -5 0 -38 27 -73 61 -34 33 -75 67 -90
74 -14 8 -29 21 -32 30 -4 8 -18 15 -34 15 -16 0 -36 9 -46 20 -9 11 -27 20
-39 20 -12 0 -29 6 -37 14 -32 27 -130 76 -154 76 -14 0 -30 7 -37 15 -7 9
-29 15 -54 15 -30 0 -37 3 -26 10 12 8 9 10 -11 10 -15 0 -32 7 -39 15 -7 8
-20 15 -29 15 -9 0 -22 5 -29 12 -9 9 -12 9 -12 -2 0 -10 -4 -9 -18 3 -10 10
-25 17 -34 17 -8 0 -26 9 -40 19 -13 11 -39 22 -58 25 -19 3 -36 10 -38 16 -2
5 -7 8 -12 5 -7 -5 -76 14 -120 32 -13 6 -78 11 -182 15 -16 1 -30 9 -37 22
-11 23 -28 451 -23 611 1 55 -2 134 -7 175 -5 43 -5 79 0 85 14 14 11 25 -7
25 -11 0 -14 6 -9 20 6 20 2 20 -421 20 l-427 0 7 -52 c8 -58 25 -83 61 -92
34 -9 49 -40 33 -66 -7 -11 -18 -20 -24 -20 -7 0 -14 -12 -17 -27 -8 -39 15
-54 75 -48 42 4 48 2 48 -14 0 -12 -9 -21 -25 -25 -14 -4 -25 -13 -25 -21 0
-8 -10 -20 -22 -26 -34 -17 -119 -112 -116 -129 2 -8 13 -19 26 -25 12 -5 22
-13 22 -16 0 -4 17 -3 38 2 20 5 41 9 45 9 4 0 7 -26 6 -57 -1 -32 3 -69 8
-83 9 -23 8 -68 -2 -97 -2 -7 -18 -13 -35 -13 -18 0 -29 -5 -28 -12 2 -6 -12
-15 -31 -19 -20 -4 -47 -22 -65 -42 -36 -39 -78 -67 -102 -67 -10 0 -25 -6
-33 -14 -32 -28 -92 -56 -121 -56 -17 0 -38 -4 -48 -9 -25 -12 -86 -31 -103
-31 -8 0 -20 -9 -26 -19 -8 -13 -28 -22 -60 -26 -26 -3 -66 -15 -88 -25 -22
-10 -53 -22 -70 -26 -16 -3 -39 -15 -50 -24 -26 -23 -80 -50 -100 -50 -8 0
-15 -7 -15 -15 0 -8 -12 -18 -27 -21 -15 -4 -38 -13 -52 -20 -14 -8 -32 -14
-38 -14 -7 0 -13 -4 -13 -10 0 -5 -5 -10 -10 -10 -6 0 -30 -9 -53 -20 -75 -37
-107 -13 -107 80 0 29 -27 58 -77 84 -26 13 -33 23 -33 45 0 15 -11 45 -25 65
-42 62 -56 95 -66 158 -6 34 -16 70 -24 82 -8 11 -15 27 -15 35 0 7 -12 24
-27 37 -20 17 -30 40 -40 86 -7 34 -22 75 -33 90 -11 15 -20 32 -20 37 0 6 -8
15 -19 20 -10 6 -21 23 -24 39 -3 16 -13 37 -22 45 -8 9 -15 20 -15 26 0 20
-45 39 -108 46 -69 8 -92 28 -72 64 8 15 5 34 -11 75 -24 65 -35 75 -55 50
-14 -18 -14 -53 -2 -169 3 -29 1 -30 -31 -27 -32 2 -64 28 -55 44 5 7 -19 127
-37 184 -5 17 -9 54 -9 82 l0 52 -200 0 -200 0 5 -42z m437 -3007 c9 -10 23
-23 32 -28 11 -6 18 -30 23 -73 12 -111 10 -165 -9 -183 -9 -9 -19 -31 -23
-47 -6 -26 -11 -31 -33 -28 -26 3 -27 5 -34 93 -6 82 -2 242 7 273 6 17 18 15
37 -7z m4738 -285 c0 -3 -4 -8 -10 -11 -5 -3 -10 -1 -10 4 0 6 5 11 10 11 6 0
10 -2 10 -4z m770 -16 c0 -5 -8 -10 -17 -10 -14 0 -15 -2 -5 -9 19 -11 -8 -22
-36 -14 -18 4 -19 8 -9 24 12 20 67 27 67 9z m-780 -110 c0 -5 -5 -10 -11 -10
-5 0 -7 5 -4 10 3 6 8 10 11 10 2 0 4 -4 4 -10z m17 -52 c-3 -7 -5 -2 -5 12 0
14 2 19 5 13 2 -7 2 -19 0 -25z m-4867 -257 c15 -29 12 -41 -10 -41 -16 0 -20
7 -20 30 0 34 14 39 30 11z m80 -2487 c0 -8 -4 -14 -9 -14 -11 0 -22 26 -14
34 9 9 23 -3 23 -20z m-10 -84 c0 -5 -4 -10 -10 -10 -5 0 -10 5 -10 10 0 6 5
10 10 10 6 0 10 -4 10 -10z m1145 -60 c-8 -9 -15 -22 -15 -29 0 -7 -4 -10 -9
-6 -5 3 -11 -5 -13 -17 -2 -14 -9 -23 -20 -22 -10 1 -14 -4 -11 -12 3 -8 -1
-14 -11 -14 -9 0 -19 7 -22 15 -4 8 -10 13 -14 10 -4 -3 -10 2 -13 10 -4 9 -1
12 7 9 8 -3 33 13 56 35 23 22 47 38 53 37 7 -2 9 -1 5 1 -5 3 -8 9 -8 15 0 6
6 5 15 -2 14 -12 14 -15 0 -30z m-958 -15 c-7 -17 -37 -21 -37 -5 0 6 7 10 15
10 8 0 15 5 15 12 0 6 3 9 6 5 4 -3 4 -13 1 -22z m373 -65 c0 -5 -5 -10 -11
-10 -5 0 -7 5 -4 10 3 6 8 10 11 10 2 0 4 -4 4 -10z m20 -1235 c0 -8 -7 -15
-15 -15 -8 0 -15 -4 -15 -9 0 -5 -11 -22 -24 -38 -13 -16 -34 -49 -47 -73 -31
-59 -59 -90 -81 -90 -22 0 -24 29 -3 56 8 10 15 28 15 39 0 28 46 75 95 100
22 11 44 26 48 33 11 17 27 15 27 -3z m285 -46 c4 -5 -7 -15 -24 -22 -36 -13
-40 -32 -8 -41 14 -4 18 -9 11 -13 -8 -6 -9 -24 -4 -56 5 -34 3 -50 -7 -58 -7
-6 -13 -16 -13 -21 0 -5 -6 -16 -14 -23 -7 -8 -16 -32 -20 -54 -6 -40 -21 -60
-34 -46 -4 4 -1 10 6 12 10 4 10 8 1 19 -15 19 -29 8 -29 -22 0 -15 -6 -24
-16 -24 -9 0 -14 -7 -13 -17 1 -10 -1 -25 -4 -33 -20 -54 -27 -93 -21 -124 7
-40 -9 -50 -21 -13 -5 17 -8 18 -12 7 -3 -8 -14 -27 -24 -42 -11 -14 -19 -33
-19 -42 0 -9 -8 -16 -20 -16 -24 0 -31 -13 -33 -64 -1 -20 -6 -37 -12 -38 -5
0 -22 -2 -36 -3 -14 -1 -31 -5 -38 -9 -14 -9 -43 12 -35 26 12 20 -6 58 -29
59 -17 1 -18 2 -4 6 9 2 17 9 17 14 0 6 7 17 15 25 8 9 15 24 15 35 0 10 -7
19 -15 19 -8 0 -15 -7 -15 -15 0 -22 -46 -62 -78 -70 -27 -5 -32 -2 -58 39
-16 25 -32 46 -37 46 -8 0 13 41 26 51 4 3 7 14 6 25 -4 41 1 56 16 50 20 -7
49 38 40 61 -7 20 -7 23 0 23 2 0 16 12 29 25 14 14 37 25 51 25 32 0 112 45
126 71 5 10 16 19 24 19 8 0 15 4 15 9 0 5 14 12 30 16 17 4 30 11 30 16 0 5
14 9 30 9 17 0 30 4 30 9 0 6 14 18 30 28 17 9 30 22 30 28 0 5 14 24 30 42
17 18 30 36 30 42 0 19 45 27 55 10z m3804 -3 c9 -11 9 -20 2 -34 -15 -28 -38
-34 -71 -17 -34 18 -44 31 -36 50 7 20 89 20 105 1z m-369 -190 c0 -16 -18
-31 -27 -22 -8 8 5 36 17 36 5 0 10 -6 10 -14z m-2920 -92 c45 -30 54 -59 16
-52 -17 4 -23 1 -19 -9 3 -7 12 -13 20 -13 10 0 12 -6 8 -20 -3 -11 -2 -20 3
-20 6 0 12 -25 14 -55 2 -32 -1 -50 -6 -45 -5 5 -16 5 -25 1 -49 -25 -153 -18
-136 9 4 6 1 17 -5 25 -15 18 16 64 44 65 14 0 17 5 12 23 -16 56 -18 77 -7
77 6 0 11 8 11 18 0 9 4 13 8 7 4 -5 13 -11 21 -13 12 -3 12 0 1 12 -18 23 -5
20 40 -10z m-625 -154 c0 -7 -6 -15 -12 -17 -8 -3 -13 4 -13 17 0 13 5 20 13
18 6 -3 12 -11 12 -18z m193 -18 c3 -26 0 -32 -15 -32 -11 0 -28 8 -40 17
l-21 17 21 18 c30 27 51 19 55 -20z m24 -77 c-2 -11 -8 -22 -12 -25 -5 -3 -12
-18 -15 -33 -8 -32 -17 -39 -39 -31 -21 8 -20 40 2 49 16 7 15 8 -3 15 -18 8
-19 9 -1 9 11 1 16 6 13 15 -7 17 9 26 38 23 14 -1 19 -8 17 -22z m351 -2 c-7
-2 -19 -2 -25 0 -7 3 -2 5 12 5 14 0 19 -2 13 -5z m-756 -175 c-3 -7 -5 -2 -5
12 0 14 2 19 5 13 2 -7 2 -19 0 -25z m-1697 -114 c0 -8 -5 -12 -10 -9 -6 4 -8
11 -5 16 9 14 15 11 15 -7z m3530 -44 c0 -5 -4 -10 -10 -10 -5 0 -10 5 -10 10
0 6 5 10 10 10 6 0 10 -4 10 -10z"/>
<path d="M2786 711 c-4 -7 -5 -15 -2 -18 9 -9 19 4 14 18 -4 11 -6 11 -12 0z"/>
<path d="M2810 705 c0 -8 4 -15 10 -15 5 0 7 7 4 15 -4 8 -8 15 -10 15 -2 0
-4 -7 -4 -15z"/>
<path d="M8366 9156 c6 -16 34 -30 34 -18 0 13 126 -22 144 -40 9 -9 16 -19
16 -22 0 -3 -34 -6 -75 -6 -81 0 -121 -13 -130 -42 -9 -26 3 -56 26 -63 10 -4
19 -13 19 -21 0 -21 20 -17 46 11 29 31 64 22 76 -20 9 -37 24 -45 62 -34 17
5 46 6 64 3 l33 -6 -38 -34 c-38 -34 -43 -37 -94 -48 -27 -6 -49 -38 -30 -44
15 -5 14 -82 -1 -82 -8 0 -8 -3 -2 -9 5 -6 29 -11 54 -13 43 -3 45 -4 46 -34
2 -64 1 -64 139 -64 69 0 125 4 125 9 0 4 11 6 24 4 28 -6 41 -47 20 -63 -7
-6 -45 -14 -84 -19 -64 -7 -89 -18 -90 -42 0 -9 40 -49 51 -49 5 0 18 5 28 11
22 14 74 3 68 -14 -2 -7 -12 -14 -23 -15 -29 -6 -42 -22 -16 -22 12 0 22 -3
22 -8 0 -15 72 -30 101 -20 32 11 44 34 23 42 -20 8 -8 26 17 26 13 0 19 -7
19 -24 0 -35 10 -56 26 -56 21 0 26 -22 14 -54 -8 -22 -15 -27 -33 -22 -27 6
-55 -8 -37 -19 9 -6 9 -9 0 -15 -9 -6 -8 -15 4 -39 18 -34 62 -44 72 -16 4 8
24 18 45 21 l39 7 0 488 0 489 -405 0 c-346 0 -404 -2 -399 -14z m274 -160 c0
-7 10 -17 23 -21 17 -5 18 -8 6 -11 -24 -7 -69 13 -69 31 0 8 9 15 20 15 11 0
20 -6 20 -14z m77 -163 c-3 -10 -5 -2 -5 17 0 19 2 27 5 18 2 -10 2 -26 0 -35z
m113 -53 c0 -5 -7 -10 -15 -10 -8 0 -15 5 -15 10 0 6 7 10 15 10 8 0 15 -4 15
-10z m-151 -16 c2 -2 1 -10 -2 -19 -8 -21 -66 -20 -74 1 -8 21 16 35 47 27 14
-3 27 -7 29 -9z m238 -66 c-3 -8 -6 -5 -6 6 -1 11 2 17 5 13 3 -3 4 -12 1 -19z
m50 -150 c-3 -7 -5 -2 -5 12 0 14 2 19 5 13 2 -7 2 -19 0 -25z m23 -22 c0 -2
-7 -6 -15 -10 -8 -3 -15 -1 -15 4 0 6 7 10 15 10 8 0 15 -2 15 -4z m28 -61
c44 -13 21 -26 -40 -23 -63 3 -80 17 -36 29 23 7 34 6 76 -6z m102 -35 c0 -11
-2 -20 -5 -20 -2 0 -9 9 -15 20 -9 16 -8 20 5 20 8 0 15 -9 15 -20z m-160 -50
c0 -5 -5 -10 -11 -10 -5 0 -7 5 -4 10 3 6 8 10 11 10 2 0 4 -4 4 -10z"/>
<path d="M8240 9140 c0 -5 11 -10 24 -10 13 0 33 -2 43 -5 10 -3 5 1 -12 9
-36 18 -55 20 -55 6z"/>
<path d="M8220 9081 c0 -6 5 -13 10 -16 6 -3 10 -17 10 -31 0 -13 5 -24 10
-24 13 0 13 6 -2 47 -11 31 -28 45 -28 24z"/>
<path d="M240 8466 c0 -9 5 -16 10 -16 6 0 10 4 10 9 0 6 -4 13 -10 16 -5 3
-10 -1 -10 -9z"/>
<path d="M9018 8283 c7 -3 16 -2 19 1 4 3 -2 6 -13 5 -11 0 -14 -3 -6 -6z"/>
<path d="M8824 8154 c3 -9 6 -18 6 -20 0 -3 5 -2 10 1 16 10 12 35 -6 35 -11
0 -14 -5 -10 -16z"/>
<path d="M9080 8140 c0 -5 20 -10 45 -10 25 0 45 5 45 10 0 6 -20 10 -45 10
-25 0 -45 -4 -45 -10z"/>
<path d="M8893 8088 c2 -7 10 -13 17 -13 7 0 15 6 18 13 2 7 -5 12 -18 12 -13
0 -20 -5 -17 -12z"/>
<path d="M8958 7973 c7 -3 16 -2 19 1 4 3 -2 6 -13 5 -11 0 -14 -3 -6 -6z"/>
<path d="M7220 5880 c0 -5 9 -10 20 -10 11 0 20 5 20 10 0 6 -9 10 -20 10 -11
0 -20 -4 -20 -10z"/>
<path d="M7280 5884 c0 -16 35 -32 47 -22 21 17 15 28 -17 28 -16 0 -30 -3
-30 -6z"/>
<path d="M7140 5837 c0 -7 10 -18 23 -26 20 -13 21 -13 8 2 -12 15 -11 17 8
17 11 0 21 5 21 10 0 6 -13 10 -30 10 -17 0 -30 -5 -30 -13z"/>
<path d="M7280 5820 c0 -5 5 -10 11 -10 5 0 7 5 4 10 -3 6 -8 10 -11 10 -2 0
-4 -4 -4 -10z"/>
<path d="M2575 2700 c-3 -5 -1 -10 4 -10 6 0 11 5 11 10 0 6 -2 10 -4 10 -3 0
-8 -4 -11 -10z"/>
<path d="M2695 2670 c3 -5 10 -10 16 -10 5 0 9 5 9 10 0 6 -7 10 -16 10 -8 0
-12 -4 -9 -10z"/>
<path d="M2655 2640 c-3 -5 1 -10 9 -10 8 0 18 5 21 10 3 6 -1 10 -9 10 -8 0
-18 -4 -21 -10z"/>
<path d="M3298 2073 c-10 -3 -18 -10 -18 -16 0 -8 -4 -7 -9 2 -5 8 -16 11 -27
7 -13 -5 -15 -9 -6 -18 7 -7 12 -20 12 -29 0 -11 11 -18 33 -22 59 -9 136 31
80 41 -10 2 -25 12 -33 21 -8 10 -23 16 -32 14z"/>
<path d="M3351 2071 c-7 -5 -9 -11 -4 -14 6 -4 19 0 29 8 15 11 16 14 4 15 -8
0 -21 -4 -29 -9z"/>
<path d="M8222 1679 c2 -6 7 -10 11 -10 4 1 14 1 23 1 8 0 12 5 9 10 -8 13
-48 13 -43 -1z"/>
<path d="M8096 1663 c-8 -8 -13 -9 -62 -11 -16 -1 -39 -9 -50 -18 -16 -13 -16
-15 -1 -10 9 3 17 1 17 -3 0 -5 -5 -11 -10 -13 -17 -5 12 -66 34 -72 45 -12
104 -6 129 14 18 15 40 20 80 20 31 0 59 5 62 10 3 6 15 10 25 10 11 0 30 11
44 25 l25 25 -42 -6 c-23 -4 -46 -10 -52 -14 -5 -5 -35 -10 -65 -13 -30 -3
-70 -9 -87 -12 -25 -6 -34 -4 -39 9 -3 9 -16 16 -28 16 -16 0 -18 2 -6 9 8 6
17 8 21 6 3 -3 23 5 45 15 l38 20 -35 0 c-20 0 -39 -3 -43 -7z"/>
<path d="M8933 1572 c-26 -4 -31 -27 -8 -36 24 -9 17 -24 -12 -28 -20 -2 -29
-9 -31 -25 -3 -21 0 -23 47 -23 39 0 51 4 51 15 0 8 8 15 18 15 10 0 22 3 26
8 8 7 13 8 41 11 10 1 15 12 15 32 0 17 -4 28 -10 24 -5 -3 -16 -3 -22 2 -13
8 -74 11 -115 5z"/>
<path d="M40 1554 c0 -9 -9 -18 -20 -21 -20 -5 -20 -14 -20 -568 0 -441 3
-564 12 -568 10 -4 10 -6 1 -6 -7 -1 -13 -12 -13 -25 0 -18 8 -27 31 -35 68
-24 104 -11 111 39 4 29 35 38 68 20 21 -11 21 -12 3 -25 -10 -8 -26 -15 -35
-15 -10 0 -18 -6 -18 -14 0 -8 -3 -23 -7 -33 -6 -17 -6 -17 14 0 23 20 28 19
158 -15 84 -23 98 -32 89 -60 -3 -12 0 -18 10 -18 9 0 16 -8 16 -20 0 -10 9
-24 20 -30 11 -6 20 -8 20 -4 0 3 7 1 15 -6 12 -10 16 -8 24 13 6 14 9 38 8
53 -1 15 3 29 9 31 16 5 26 -56 15 -94 -6 -21 -5 -35 2 -42 9 -9 6 -13 -11
-18 -15 -3 -21 -11 -18 -20 3 -8 6 -19 6 -24 0 -6 14 -15 30 -20 16 -6 30 -15
30 -20 0 -5 86 -9 195 -9 224 0 205 -11 184 104 -22 117 -32 139 -70 151 -31
11 -34 15 -33 48 2 34 0 37 -27 37 -31 0 -49 22 -42 51 3 11 -1 21 -10 25 -9
3 -21 22 -28 42 -15 47 -23 52 -64 40 -28 -9 -32 -14 -29 -39 4 -36 -5 -36
-30 -2 -19 26 -19 26 6 48 13 11 22 27 20 34 -3 8 3 18 12 23 9 5 16 17 16 27
0 10 7 24 15 31 8 7 15 17 15 22 0 11 80 129 94 139 5 4 6 14 3 23 -4 9 -2 16
3 16 5 0 16 7 24 16 9 8 16 11 16 4 0 -6 10 -2 22 10 17 16 19 23 10 32 -9 9
-12 9 -12 0 0 -23 -18 -12 -29 18 -9 26 -8 30 9 30 18 0 18 2 4 35 -8 20 -12
40 -9 44 8 13 -21 21 -80 21 -60 0 -85 16 -85 55 0 33 -26 56 -55 49 -12 -3
-25 -2 -28 3 -3 5 -2 40 3 78 7 58 6 73 -7 87 -9 10 -21 18 -28 18 -6 0 -21
13 -33 29 -18 25 -27 29 -58 26 -41 -3 -56 -19 -48 -52 9 -35 -20 -39 -77 -10
-49 26 -50 26 -69 7 -32 -32 -76 -25 -72 11 1 4 -13 10 -31 14 -28 6 -30 8
-12 15 18 8 18 9 -5 9 -45 2 -68 12 -75 34 -7 20 -8 20 -12 -6 -6 -41 -37 -32
-41 11 -3 27 1 35 17 39 12 3 21 9 21 14 0 5 26 9 59 9 52 0 59 2 65 23 12 46
9 50 -35 43 -35 -6 -41 -4 -46 14 -4 16 -14 20 -44 20 -29 0 -39 -4 -39 -16z
m145 -54 c3 -5 -1 -10 -9 -10 -9 0 -16 5 -16 10 0 6 4 10 9 10 6 0 13 -4 16
-10z m-105 -180 c0 -5 -2 -10 -4 -10 -3 0 -8 5 -11 10 -3 6 -1 10 4 10 6 0 11
-4 11 -10z m253 -67 c-7 -2 -19 -2 -25 0 -7 3 -2 5 12 5 14 0 19 -2 13 -5z
m201 -131 c4 -10 -1 -33 -10 -52 -14 -28 -18 -30 -26 -16 -6 11 -5 29 2 51 13
39 26 45 34 17z m-297 -94 c-2 -13 -4 -3 -4 22 0 25 2 35 4 23 2 -13 2 -33 0
-45z m96 35 c2 -5 -1 -18 -7 -29 l-11 -21 -34 23 -33 22 28 5 c50 7 53 7 57 0z
m71 -14 c-3 -5 -10 -7 -15 -3 -5 3 -7 10 -3 15 3 5 10 7 15 3 5 -3 7 -10 3
-15z m221 1 c0 -18 -33 -26 -47 -12 -6 6 -7 15 -3 22 10 16 50 8 50 -10z m181
-103 c1 -11 0 -12 -3 -3 -2 9 -21 17 -44 19 l-39 4 42 -1 c33 -1 43 -5 44 -19z
m-706 -568 c0 -18 -18 -9 -23 12 -4 16 -3 18 9 8 8 -6 14 -15 14 -20z"/>
<path d="M495 1497 c-16 -18 -6 -49 13 -45 21 4 30 58 10 58 -7 -1 -18 -6 -23
-13z"/>
<path d="M300 1378 c-25 -11 -25 -11 13 -21 40 -10 66 1 53 22 -9 14 -33 13
-66 -1z"/>
<path d="M2146 1373 c-14 -4 -16 -7 -6 -13 9 -6 5 -12 -16 -24 -24 -13 -26
-15 -8 -16 25 0 44 -18 44 -42 0 -16 3 -16 40 3 36 19 40 25 40 60 0 39 0 39
-37 38 -21 -1 -47 -4 -57 -6z"/>
<path d="M8844 1355 c4 -11 -2 -15 -20 -15 -28 0 -44 -30 -46 -87 -1 -29 -4
-33 -30 -33 -20 0 -28 -5 -28 -18 0 -13 -8 -18 -27 -17 -19 0 -31 -7 -39 -23
-6 -13 -15 -22 -20 -20 -4 2 -19 -18 -33 -44 -14 -27 -31 -48 -37 -48 -6 0
-23 -9 -37 -20 -14 -11 -33 -20 -43 -20 -14 0 -12 -5 10 -25 14 -13 26 -31 26
-40 0 -14 -3 -14 -25 1 -20 13 -28 14 -40 4 -21 -18 -19 -48 5 -55 14 -4 20
-15 20 -36 0 -32 -7 -37 -24 -13 -9 12 -22 14 -64 8 l-53 -7 21 -21 c21 -23
27 -56 10 -56 -5 0 -10 -7 -10 -16 0 -14 -8 -16 -48 -11 -26 3 -53 3 -59 -1
-6 -4 -11 -25 -11 -47 0 -21 -5 -41 -11 -43 -14 -5 -15 -42 -1 -42 15 0 12
-30 -4 -36 -8 -3 -20 -19 -26 -35 -10 -23 -10 -32 0 -44 11 -13 9 -20 -10 -40
-20 -21 -22 -31 -17 -80 3 -30 1 -57 -4 -60 -5 -4 -9 17 -10 47 -1 44 -2 48
-9 25 -5 -15 -11 -61 -15 -102 -7 -70 -9 -75 -31 -75 -13 0 -24 -5 -24 -11 0
-6 7 -8 16 -5 26 10 35 -3 20 -32 -7 -15 -16 -57 -19 -94 l-5 -68 539 0 539 0
0 266 0 265 -32 -3 c-26 -2 -34 -8 -36 -26 -2 -13 2 -30 8 -38 10 -11 8 -14
-13 -14 -29 0 -62 41 -46 57 6 6 16 31 24 57 12 40 12 46 0 46 -17 0 -20 36
-5 45 6 4 19 -4 30 -17 15 -18 19 -19 20 -7 0 9 7 22 16 30 11 9 14 22 10 44
-5 22 -2 36 9 45 12 10 15 44 15 191 0 99 -3 179 -7 179 -14 -1 -43 -27 -43
-39 0 -6 -6 -11 -14 -11 -7 0 -19 -7 -26 -15 -13 -16 -100 -22 -100 -7 0 10
38 42 50 42 6 0 10 11 10 24 0 14 5 28 10 31 6 3 10 20 10 36 0 23 -6 32 -27
40 -16 6 -36 17 -45 26 -9 8 -21 12 -26 9 -6 -3 -13 12 -17 34 -6 34 -12 41
-38 49 -29 8 -30 9 -7 10 14 1 32 6 40 11 11 7 -2 10 -44 10 -48 0 -57 -3 -52
-15z m96 -335 c0 -5 -4 -10 -10 -10 -5 0 -10 5 -10 10 0 6 5 10 10 10 6 0 10
-4 10 -10z m-60 -91 c0 -11 -4 -18 -10 -14 -5 3 -7 12 -3 20 7 21 13 19 13 -6z"/>
<path d="M4304 1169 c-4 -7 -1 -10 7 -7 8 3 20 -2 27 -11 11 -14 11 -13 2 7
-12 24 -25 28 -36 11z"/>
<path d="M766 1156 c7 -17 34 -30 34 -16 0 16 19 11 40 -10 26 -26 25 -38 -2
-43 -20 -3 -19 -5 10 -12 17 -4 32 -11 32 -16 0 -5 18 -9 40 -9 33 0 40 3 40
20 0 10 -9 24 -20 30 -11 6 -18 15 -15 19 6 11 -19 21 -51 21 -15 0 -24 6 -24
15 0 11 -12 15 -45 15 -34 0 -43 -3 -39 -14z m134 -50 c0 -3 -4 -8 -10 -11 -5
-3 -10 -1 -10 4 0 6 5 11 10 11 6 0 10 -2 10 -4z"/>
<path d="M760 1090 l-45 -7 42 -1 c23 -1 45 3 48 8 3 6 5 9 3 8 -2 0 -23 -4
-48 -8z"/>
<path d="M880 970 c0 -24 35 -28 44 -4 9 23 8 24 -19 24 -18 0 -25 -5 -25 -20z"/>
<path d="M4500 939 c0 -5 5 -7 10 -4 6 3 10 1 10 -4 0 -6 7 -11 15 -11 20 0
19 16 -1 24 -23 9 -34 7 -34 -5z"/>
<path d="M4651 784 c0 -11 3 -14 6 -6 3 7 2 16 -1 19 -3 4 -6 -2 -5 -13z"/>
<path d="M7400 755 c0 -17 2 -18 24 -9 23 9 20 24 -4 24 -11 0 -20 -7 -20 -15z"/>
<path d="M7520 719 c0 -25 4 -29 26 -29 20 0 25 4 20 16 -3 9 -6 19 -6 24 0 4
-9 10 -20 13 -17 4 -20 0 -20 -24z"/>
<path d="M4370 722 c0 -5 6 -16 13 -25 9 -13 16 -14 27 -6 13 9 12 10 -2 5
-13 -4 -18 0 -18 14 0 11 -4 20 -10 20 -5 0 -10 -4 -10 -8z"/>
<path d="M7382 697 c-12 -13 -22 -33 -22 -45 0 -11 -4 -23 -9 -26 -21 -13 -61
-108 -61 -145 0 -35 -4 -41 -36 -56 -24 -11 -34 -21 -30 -32 3 -8 6 -17 6 -19
0 -2 7 -4 15 -4 19 0 19 -2 -2 -44 -15 -33 -15 -37 0 -54 21 -23 21 -32 2 -68
-8 -16 -15 -49 -15 -74 0 -28 -8 -56 -20 -75 -36 -54 -35 -55 146 -55 164 0
165 0 159 21 -5 13 -2 25 6 29 9 6 13 43 15 127 1 65 5 166 8 224 3 59 2 128
-3 155 -6 32 -6 51 1 55 6 4 7 20 3 38 -5 25 -11 31 -25 26 -12 -4 -24 2 -34
16 -10 15 -21 20 -35 16 -12 -3 -24 -1 -27 4 -8 14 -19 11 -42 -14z"/>
<path d="M4680 700 c0 -5 5 -10 11 -10 5 0 7 5 4 10 -3 6 -8 10 -11 10 -2 0
-4 -4 -4 -10z"/>
<path d="M5430 480 c0 -5 5 -10 11 -10 5 0 7 5 4 10 -3 6 -8 10 -11 10 -2 0
-4 -4 -4 -10z"/>
<path d="M6280 367 c0 -5 5 -17 10 -28 11 -20 50 -27 50 -9 0 6 -9 10 -20 10
-10 0 -24 8 -29 18 -6 9 -11 13 -11 9z"/>
<path d="M6830 295 c0 -8 7 -15 15 -15 9 0 12 6 9 15 -4 8 -10 15 -15 15 -5 0
-9 -7 -9 -15z"/>
<path d="M278 273 c7 -3 16 -2 19 1 4 3 -2 6 -13 5 -11 0 -14 -3 -6 -6z"/>
<path d="M1640 230 c0 -22 2 -40 4 -40 2 0 11 -3 20 -6 12 -5 16 0 16 20 0 16
6 26 15 26 8 0 15 9 15 20 0 16 -7 20 -35 20 -34 0 -35 -1 -35 -40z"/>
<path d="M1848 213 c6 -2 18 -2 25 0 6 3 1 5 -13 5 -14 0 -19 -2 -12 -5z"/>
<path d="M358 173 c7 -3 16 -2 19 1 4 3 -2 6 -13 5 -11 0 -14 -3 -6 -6z"/>
<path d="M6865 137 c-4 -10 -5 -21 -1 -24 10 -10 18 4 13 24 -4 17 -4 17 -12
0z"/>
<path d="M370 120 c-30 -6 -32 -8 -10 -10 14 -2 31 -3 38 -3 8 1 22 -7 33 -18
20 -20 37 -23 57 -11 8 6 -1 15 -29 30 -22 12 -44 21 -47 21 -4 -1 -23 -5 -42
-9z"/>
<path d="M7006 34 c-3 -8 -10 -12 -16 -9 -5 3 -10 -1 -10 -9 0 -9 9 -16 20
-16 15 0 20 7 20 25 0 29 -5 32 -14 9z"/>
</g>
</svg>
